<svg width="12" height="31" viewBox="0 0 12 31" fill="none" xmlns="http://www.w3.org/2000/svg">
<path d="M5.29 30.05C5.95 30.05 6.51 29.82 6.97 29.36C7.41 28.92 7.63 28.36 7.63 27.68V17.99C7.63 16.99 8.17 16.49 9.25 16.49H11.83V14.21H9.25C8.17 14.21 7.63 13.71 7.63 12.71V3.02C7.63 2.34 7.41 1.78 6.97 1.34C6.51 0.879998 5.95 0.649998 5.29 0.649998H0.609999V2.72H4.51C5.05 2.72 5.32 3.02 5.32 3.62V12.74C5.32 13.46 5.52 14.04 5.92 14.48C6.3 14.92 6.84 15.14 7.54 15.14H7.75V15.56H7.54C6.84 15.56 6.3 15.78 5.92 16.22C5.52 16.66 5.32 17.24 5.32 17.96V27.08C5.32 27.68 5.05 27.98 4.51 27.98H0.609999V30.05H5.29Z" fill="currentColor"/>
</svg>
