<svg width="12" height="31" viewBox="0 0 12 31" fill="none" xmlns="http://www.w3.org/2000/svg">
<path d="M6.71 30.05C6.05 30.05 5.49 29.82 5.03 29.36C4.59 28.92 4.37 28.36 4.37 27.68V17.99C4.37 16.99 3.83 16.49 2.75 16.49H0.17V14.21H2.75C3.83 14.21 4.37 13.71 4.37 12.71V3.02C4.37 2.34 4.59 1.78 5.03 1.34C5.49 0.879998 6.05 0.649998 6.71 0.649998H11.39V2.72H7.49C6.95 2.72 6.68 3.02 6.68 3.62V12.74C6.68 13.46 6.48 14.04 6.08 14.48C5.7 14.92 5.16 15.14 4.46 15.14H4.25V15.56H4.46C5.16 15.56 5.7 15.78 6.08 16.22C6.48 16.66 6.68 17.24 6.68 17.96V27.08C6.68 27.68 6.95 27.98 7.49 27.98H11.39V30.05H6.71Z" fill="currentColor"/>
</svg>
